<?xml version="1.0" standalone="no"?>
<!DOCTYPE svg PUBLIC "-//W3C//DTD SVG 20010904//EN"
 "http://www.w3.org/TR/2001/REC-SVG-20010904/DTD/svg10.dtd">
<svg version="1.0" xmlns="http://www.w3.org/2000/svg"
 width="800.000000pt" height="800.000000pt" viewBox="0 0 800.000000 800.000000"
 preserveAspectRatio="xMidYMid meet">
<metadata>
Created by potrace 1.11, written by Peter Selinger 2001-2013
</metadata>
<g transform="translate(0.000000,800.000000) scale(0.100000,-0.100000)"
fill="#000000" stroke="none">
<path d="M3837 7933 c-1 0 -47 -4 -102 -7 -55 -4 -111 -8 -125 -10 -14 -3 -52
-7 -85 -11 -114 -12 -224 -30 -340 -56 -49 -12 -99 -22 -110 -24 -11 -2 -60
-15 -110 -30 -49 -14 -99 -28 -109 -30 -11 -3 -49 -14 -85 -26 -36 -12 -66
-20 -67 -18 0 2 -7 -1 -15 -7 -8 -6 -32 -17 -54 -24 -22 -7 -58 -21 -80 -30
-22 -10 -71 -30 -110 -45 -103 -42 -384 -187 -492 -255 -52 -33 -99 -60 -104
-60 -5 0 -9 -4 -9 -10 0 -5 -6 -10 -14 -10 -8 0 -16 -3 -18 -8 -1 -4 -32 -27
-68 -51 -36 -24 -67 -47 -70 -50 -3 -3 -32 -26 -65 -50 -51 -38 -95 -73 -200
-162 -49 -41 -345 -339 -385 -388 -25 -30 -54 -64 -66 -77 -11 -13 -29 -35
-40 -50 -18 -25 -43 -57 -63 -80 -30 -37 -131 -184 -131 -192 0 -6 -4 -12 -9
-14 -35 -12 -288 -489 -366 -688 -20 -52 -40 -104 -45 -115 -23 -56 -99 -299
-115 -365 -24 -103 -35 -149 -39 -170 -2 -14 -9 -47 -15 -75 -6 -27 -13 -66
-16 -85 -3 -19 -11 -78 -19 -130 -8 -52 -18 -131 -21 -175 -4 -44 -8 -100 -11
-125 -5 -55 -5 -427 0 -490 4 -43 15 -162 21 -225 24 -235 139 -716 214 -890
5 -11 28 -67 51 -125 68 -169 168 -369 275 -548 51 -85 90 -148 95 -152 4 -3
29 -39 57 -81 113 -168 372 -468 512 -593 12 -12 33 -30 45 -41 24 -21 130
-116 156 -139 78 -68 457 -336 476 -336 3 0 28 -15 57 -33 55 -35 335 -177
427 -216 113 -48 401 -150 470 -166 8 -2 42 -11 75 -20 60 -16 203 -49 260
-59 58 -11 160 -28 180 -31 11 -1 43 -5 70 -9 137 -20 301 -30 500 -30 144 0
331 9 410 19 17 3 57 7 90 10 33 3 67 8 75 10 16 5 55 12 111 20 19 2 41 6 49
8 8 2 33 7 55 11 22 5 94 22 160 38 66 16 127 31 135 33 39 9 270 89 376 131
139 54 330 146 463 221 51 29 95 53 98 53 2 0 9 5 16 10 7 6 53 36 102 68 102
65 277 191 342 247 7 5 33 28 59 50 223 188 431 407 601 634 40 53 77 101 82
107 4 5 14 21 21 34 7 13 21 33 31 44 11 11 19 24 19 29 0 5 13 26 28 46 16
20 42 61 59 91 17 30 47 84 68 118 37 63 175 347 175 360 0 4 6 18 13 32 7 14
24 54 37 90 13 36 27 70 30 75 4 6 11 26 15 45 4 19 11 41 16 50 18 34 108
363 124 455 3 17 8 37 10 45 2 8 6 33 9 55 4 22 8 51 11 65 3 14 7 41 9 60 3
19 7 51 10 70 38 267 42 686 8 955 -3 28 -6 62 -6 78 -1 15 -5 27 -9 27 -5 0
-6 4 -3 8 4 7 -1 42 -29 201 -3 19 -8 37 -10 40 -2 4 -6 24 -9 46 -17 110
-108 411 -176 585 -132 336 -345 715 -537 955 -24 30 -43 56 -43 59 0 3 -8 14
-17 24 -10 10 -38 42 -63 72 -229 274 -548 558 -850 756 -347 227 -687 382
-1120 508 -163 47 -579 124 -601 110 -5 -3 -9 -2 -9 3 0 4 -17 8 -38 9 -20 0
-82 4 -137 9 -85 7 -423 13 -428 8z"/>
</g>
</svg>
